<svg width="114" height="114" viewBox="0 0 114 114" fill="none" xmlns="http://www.w3.org/2000/svg">
<g clip-path="url(#clip0_12_112)">
<path d="M114 108.104C114 111.359 111.335 114 108.051 114H5.94666C2.66232 114 0 111.359 0 108.104V5.89572C0 2.63819 2.66232 0 5.94666 0H108.051C111.335 0 114 2.63819 114 5.89572V108.104Z" fill="#0075A9"/>
<path d="M26.7197 83.5911C27.2318 83.0441 27.8458 82.6259 28.559 82.339C29.2748 82.0548 30.0711 81.91 30.9532 81.91C32.0739 81.91 33.0793 82.1674 33.9721 82.6795C34.8649 83.1916 35.6799 83.9128 36.4199 84.8405L41.7446 80.0896C40.5059 78.4702 38.9401 77.2315 37.0446 76.3736C35.1518 75.5156 32.9774 75.0866 30.5242 75.0866C28.5241 75.0866 26.6715 75.403 24.969 76.0331C23.2665 76.6658 21.7892 77.564 20.5371 78.7302C19.2877 79.8992 18.3145 81.28 17.6255 82.8752C16.9338 84.4705 16.5879 86.2346 16.5879 88.1623C16.5879 90.09 16.9338 91.8542 17.6255 93.4494C18.3172 95.0474 19.2877 96.4281 20.5371 97.5944C21.7865 98.7634 23.2638 99.6615 24.969 100.292C26.6715 100.922 28.5241 101.238 30.5242 101.238C32.9774 101.238 35.1518 100.804 37.0446 99.9323C38.9375 99.0636 40.5032 97.8303 41.7446 96.2351L36.4199 91.4842C35.6826 92.4119 34.8649 93.1331 33.9721 93.6452C33.0793 94.1572 32.0712 94.4146 30.9532 94.4146C30.0711 94.4146 29.2748 94.2698 28.559 93.9857C27.8458 93.6988 27.2318 93.2832 26.7197 92.7363C26.2076 92.1893 25.8082 91.5271 25.5213 90.7523C25.2344 89.9774 25.0923 89.1141 25.0923 88.1623C25.0923 87.2105 25.2344 86.3472 25.5213 85.5724C25.8082 84.7976 26.205 84.138 26.7197 83.5884V83.5911Z" fill="white"/>
<path d="M54.9249 75.6577L43.9915 100.67H52.5683L54.2439 96.3102H63.7565L65.4321 100.67H74.1511L63.2176 75.6577H54.9276H54.9249ZM56.5765 90.2348L58.9975 83.9342L61.4185 90.2348H56.5765Z" fill="white"/>
<path d="M78.3657 100.67H86.653V82.1969H97.4095V75.6577H78.3657V100.67Z" fill="white"/>
<path d="M57.3593 24.7009C49.8549 24.7009 43.5758 30.0523 42.1414 37.1412H36.9347C38.4281 27.2131 47.0129 19.5773 57.3485 19.572V19.5666H74.4512C69.8076 15.7192 63.8502 13.4028 57.362 13.4028C48.3535 13.4028 40.3665 17.8668 35.4977 24.7009H13.6682L16.5906 30.8701H32.2187C31.476 32.8595 30.9639 34.9614 30.7119 37.1412H19.5586L22.481 43.3103H66.1908C64.9146 46.9539 61.4479 49.5761 57.3754 49.5814C57.37 49.5814 57.3646 49.5814 57.3566 49.5814H32.2133C33.0364 51.7906 34.1437 53.8604 35.4869 55.7506C35.4869 55.7506 57.3271 55.7506 57.3432 55.7506C57.3486 55.7506 57.3512 55.7506 57.3566 55.7506C64.861 55.7506 71.1401 50.3965 72.5745 43.3077H77.7838C76.2905 53.2411 67.7002 60.8822 57.3566 60.8822H40.2593C44.9056 64.7349 50.863 67.0514 57.3566 67.0514C71.1052 67.0514 82.4704 56.6515 84.004 43.3077H91.5137L94.4361 37.1385H48.5251C49.8013 33.4949 53.2706 30.8728 57.3459 30.8674H97.4067L100.329 24.6955H57.3593V24.7009Z" fill="white"/>
</g>
<defs>
<clipPath id="clip0_12_112">
<rect width="114" height="114" fill="white"/>
</clipPath>
</defs>
</svg>
